<?xml version="1.0" encoding="utf-8"?>
<!-- Generator: Adobe Illustrator 27.0.0, SVG Export Plug-In . SVG Version: 6.00 Build 0)  -->
<svg version="1.1" id="Layer_1" xmlns="http://www.w3.org/2000/svg" xmlns:xlink="http://www.w3.org/1999/xlink" x="0px" y="0px"
	 viewBox="0 0 512 512" style="enable-background:new 0 0 512 512;" xml:space="preserve">
<style type="text/css">
	.st0{fill-rule:evenodd;clip-rule:evenodd;fill:#C12026;}
</style>
<path class="st0" d="M171.9,112h9.8c7.6,0,14.1,0,19.5,0.4c5.7,0.5,11.4,1.5,16.8,4.3c8.1,4.1,14.7,10.8,18.9,18.9
	c2.8,5.4,3.8,11.1,4.3,16.8c0.4,5.4,0.4,11.9,0.4,19.5v9.7c0,7.6,0,14.1-0.4,19.5c-0.5,5.7-1.5,11.4-4.3,16.8
	c-4.1,8.1-10.8,14.7-18.9,18.9c-5.4,2.8-11.1,3.8-16.8,4.3c-5.4,0.4-11.9,0.4-19.5,0.4h-9.7c-7.6,0-14.1,0-19.5-0.4
	c-5.7-0.5-11.4-1.5-16.8-4.3c-8.1-4.1-14.7-10.8-18.9-18.9c-2.8-5.4-3.8-11.1-4.3-16.8c-0.4-5.4-0.4-11.9-0.4-19.5v-9.8
	c0-7.6,0-14.1,0.4-19.5c0.5-5.7,1.5-11.4,4.3-16.8c4.1-8.1,10.8-14.7,18.9-18.9c5.4-2.8,11.1-3.8,16.8-4.3
	C157.8,112,164.3,112,171.9,112z M154.7,141.1c-3.9,0.3-5.4,0.9-6.1,1.2c-2.7,1.4-4.9,3.6-6.3,6.3c-0.4,0.7-0.9,2.2-1.2,6.1
	c-0.3,4.1-0.3,9.4-0.3,17.7v8.6c0,8.3,0,13.7,0.3,17.7c0.3,3.9,0.9,5.4,1.2,6.1c1.4,2.7,3.6,4.9,6.3,6.3c0.7,0.4,2.2,0.9,6.1,1.2
	c4.1,0.3,9.4,0.3,17.7,0.3h8.6c8.3,0,13.7,0,17.7-0.3c3.9-0.3,5.4-0.9,6.1-1.2c2.7-1.4,4.9-3.6,6.3-6.3c0.4-0.7,0.9-2.2,1.2-6.1
	c0.3-4.1,0.3-9.4,0.3-17.7v-8.6c0-8.3,0-13.7-0.3-17.7c-0.3-3.9-0.9-5.4-1.2-6.1c-1.4-2.7-3.6-4.9-6.3-6.3c-0.7-0.4-2.2-0.9-6.1-1.2
	c-4.1-0.3-9.4-0.3-17.7-0.3h-8.6C164.2,140.8,158.8,140.8,154.7,141.1z M330.3,112h9.7c7.6,0,14.1,0,19.5,0.4
	c5.7,0.5,11.4,1.5,16.8,4.3c8.1,4.1,14.7,10.8,18.9,18.9c2.8,5.4,3.8,11.1,4.3,16.8c0.4,5.4,0.4,11.9,0.4,19.5v9.8
	c0,7.6,0,14.1-0.4,19.5c-0.5,5.7-1.5,11.4-4.3,16.8c-4.1,8.1-10.7,14.7-18.9,18.9c-5.4,2.8-11.1,3.8-16.8,4.3
	c-5.4,0.4-11.9,0.4-19.5,0.4h-9.7c-7.6,0-14.1,0-19.5-0.4c-5.7-0.5-11.4-1.5-16.8-4.3c-8.1-4.1-14.7-10.8-18.9-18.9
	c-2.8-5.4-3.8-11.1-4.3-16.8c-0.4-5.4-0.4-11.9-0.4-19.5v-9.7c0-7.6,0-14.1,0.4-19.5c0.5-5.7,1.5-11.4,4.3-16.8
	c4.1-8.1,10.7-14.7,18.9-18.9c5.4-2.8,11.1-3.8,16.8-4.3C316.2,112,322.7,112,330.3,112z M313.1,141.1c-3.9,0.3-5.4,0.9-6.1,1.2
	c-2.7,1.4-4.9,3.6-6.3,6.3c-0.4,0.7-0.9,2.2-1.2,6.1c-0.3,4.1-0.3,9.4-0.3,17.7v8.6c0,8.3,0,13.7,0.3,17.7c0.3,3.9,0.9,5.4,1.2,6.1
	c1.4,2.7,3.6,4.9,6.3,6.3c0.7,0.4,2.2,0.9,6.1,1.2c4.1,0.3,9.4,0.3,17.7,0.3h8.6c8.3,0,13.7,0,17.7-0.3c3.9-0.3,5.4-0.9,6.1-1.2
	c2.7-1.4,4.9-3.6,6.3-6.3c0.4-0.7,0.9-2.2,1.2-6.1c0.3-4.1,0.3-9.4,0.3-17.7v-8.6c0-8.3,0-13.7-0.3-17.7c-0.3-3.9-0.9-5.4-1.2-6.1
	c-1.4-2.7-3.6-4.9-6.3-6.3c-0.7-0.4-2.2-0.9-6.1-1.2c-4.1-0.3-9.4-0.3-17.7-0.3h-8.6C322.6,140.8,317.2,140.8,313.1,141.1z
	 M171.9,270.4h9.7c7.6,0,14.1,0,19.5,0.4c5.7,0.5,11.4,1.5,16.8,4.3c8.1,4.1,14.7,10.7,18.9,18.9c2.8,5.4,3.8,11.1,4.3,16.8
	c0.4,5.4,0.4,11.9,0.4,19.5v9.7c0,7.6,0,14.1-0.4,19.5c-0.5,5.7-1.5,11.4-4.3,16.8c-4.1,8.1-10.8,14.7-18.9,18.9
	c-5.4,2.8-11.1,3.8-16.8,4.3c-5.4,0.4-11.9,0.4-19.5,0.4h-9.8c-7.6,0-14.1,0-19.5-0.4c-5.7-0.5-11.4-1.5-16.8-4.3
	c-8.1-4.1-14.7-10.7-18.9-18.9c-2.8-5.4-3.8-11.1-4.3-16.8c-0.4-5.4-0.4-11.9-0.4-19.5v-9.7c0-7.6,0-14.1,0.4-19.5
	c0.5-5.7,1.5-11.4,4.3-16.8c4.1-8.1,10.8-14.7,18.9-18.9c5.4-2.8,11.1-3.8,16.8-4.3C157.8,270.4,164.3,270.4,171.9,270.4z
	 M154.7,299.5c-3.9,0.3-5.4,0.9-6.1,1.2c-2.7,1.4-4.9,3.6-6.3,6.3c-0.4,0.7-0.9,2.2-1.2,6.1c-0.3,4.1-0.3,9.4-0.3,17.7v8.6
	c0,8.3,0,13.7,0.3,17.7c0.3,3.9,0.9,5.4,1.2,6.1c1.4,2.7,3.6,4.9,6.3,6.3c0.7,0.4,2.2,0.9,6.1,1.2c4.1,0.3,9.4,0.3,17.7,0.3h8.6
	c8.3,0,13.7,0,17.7-0.3c3.9-0.3,5.4-0.9,6.1-1.2c2.7-1.4,4.9-3.6,6.3-6.3c0.4-0.7,0.9-2.2,1.2-6.1c0.3-4.1,0.3-9.4,0.3-17.7v-8.6
	c0-8.3,0-13.7-0.3-17.7c-0.3-3.9-0.9-5.4-1.2-6.1c-1.4-2.7-3.6-4.9-6.3-6.3c-0.7-0.4-2.2-0.9-6.1-1.2c-4.1-0.3-9.4-0.3-17.7-0.3
	h-8.6C164.2,299.2,158.8,299.2,154.7,299.5z M330.3,270.4h9.7c7.6,0,14.1,0,19.5,0.4c5.7,0.5,11.4,1.5,16.8,4.3
	c8.1,4.1,14.7,10.7,18.9,18.9c2.8,5.4,3.8,11.1,4.3,16.8c0.4,5.4,0.4,11.9,0.4,19.5v9.8c0,7.6,0,14.1-0.4,19.5
	c-0.5,5.7-1.5,11.4-4.3,16.8c-4.1,8.1-10.7,14.7-18.9,18.9c-5.4,2.8-11.1,3.8-16.8,4.3c-5.4,0.4-11.9,0.4-19.5,0.4h-9.8
	c-7.6,0-14.1,0-19.5-0.4c-5.7-0.5-11.4-1.5-16.8-4.3c-8.1-4.1-14.7-10.7-18.9-18.9c-2.8-5.4-3.8-11.1-4.3-16.8
	c-0.4-5.4-0.4-11.9-0.4-19.5v-9.7c0-7.6,0-14.1,0.4-19.5c0.5-5.7,1.5-11.4,4.3-16.8c4.1-8.1,10.7-14.7,18.9-18.9
	c5.4-2.8,11.1-3.8,16.8-4.3C316.2,270.4,322.7,270.4,330.3,270.4z M313.1,299.5c-3.9,0.3-5.4,0.9-6.1,1.2c-2.7,1.4-4.9,3.6-6.3,6.3
	c-0.4,0.7-0.9,2.2-1.2,6.1c-0.3,4.1-0.3,9.4-0.3,17.7v8.6c0,8.3,0,13.7,0.3,17.7c0.3,3.9,0.9,5.4,1.2,6.1c1.4,2.7,3.6,4.9,6.3,6.3
	c0.7,0.4,2.2,0.9,6.1,1.2c4.1,0.3,9.4,0.3,17.7,0.3h8.6c8.3,0,13.7,0,17.7-0.3c3.9-0.3,5.4-0.9,6.1-1.2c2.7-1.4,4.9-3.6,6.3-6.3
	c0.4-0.7,0.9-2.2,1.2-6.1c0.3-4.1,0.3-9.4,0.3-17.7v-8.6c0-8.3,0-13.7-0.3-17.7c-0.3-3.9-0.9-5.4-1.2-6.1c-1.4-2.7-3.6-4.9-6.3-6.3
	c-0.7-0.4-2.2-0.9-6.1-1.2c-4.1-0.3-9.4-0.3-17.7-0.3h-8.6C322.6,299.2,317.2,299.2,313.1,299.5z"/>
</svg>
